<svg aria-hidden="true" style="position: absolute; width: 0; height: 0; overflow: hidden;" version="1.1" xmlns="http://www.w3.org/2000/svg" xmlns:xlink="http://www.w3.org/1999/xlink">
<defs>
<symbol id="icon-logo" viewBox="0 0 52 32">
<path fill="#ff6b09" style="fill: var(--color1, #ff6b09)" d="M32 16c0 8.837-7.163 16-16 16s-16-7.163-16-16c0-8.837 7.163-16 16-16s16 7.163 16 16z"></path>
<path fill="#fff" style="fill: var(--color2, #fff)" d="M11.996 11.2h2.121v7.436h4.595v1.728h-6.716v-9.164zM24.442 20.521c-0.951 0-1.811-0.205-2.579-0.615-0.746-0.4-1.353-0.974-1.782-1.669l-0.012-0.020c-0.428-0.724-0.641-1.536-0.641-2.435s0.214-1.706 0.641-2.422c0.438-0.721 1.045-1.299 1.769-1.69l0.024-0.012c0.768-0.41 1.628-0.615 2.579-0.615s1.807 0.205 2.566 0.615c0.748 0.402 1.356 0.981 1.782 1.681l0.012 0.020c0.436 0.716 0.655 1.523 0.655 2.422s-0.218 1.711-0.655 2.435c-0.44 0.715-1.047 1.288-1.769 1.677l-0.025 0.012c-0.759 0.41-1.615 0.615-2.566 0.615zM24.442 18.714c0.541 0 1.030-0.122 1.466-0.367 0.432-0.252 0.78-0.607 1.014-1.033l0.007-0.014c0.253-0.445 0.38-0.951 0.38-1.519s-0.127-1.073-0.38-1.519c-0.239-0.438-0.587-0.79-1.008-1.027l-0.013-0.007c-0.41-0.239-0.902-0.38-1.427-0.38-0.014 0-0.028 0-0.042 0l0.002-0c-0.541 0-1.030 0.127-1.466 0.38-0.436 0.246-0.788 0.598-1.027 1.021l-0.007 0.013c-0.244 0.445-0.367 0.951-0.367 1.519s0.122 1.073 0.367 1.519c0.249 0.439 0.599 0.794 1.021 1.040l0.013 0.007c0.436 0.244 0.925 0.367 1.466 0.367zM37.504 15.638h1.937v3.718c-0.493 0.37-1.068 0.665-1.689 0.854l-0.039 0.010c-0.655 0.201-1.313 0.301-1.977 0.301-0.951 0-1.807-0.201-2.566-0.602-0.746-0.4-1.353-0.974-1.782-1.669l-0.012-0.020c-0.428-0.724-0.641-1.54-0.641-2.448s0.214-1.719 0.641-2.435c0.438-0.721 1.051-1.296 1.782-1.677l0.025-0.012c0.768-0.41 1.632-0.615 2.592-0.615 0.803 0 1.532 0.135 2.186 0.406s1.204 0.663 1.649 1.178l-1.361 1.257c-0.655-0.689-1.444-1.034-2.369-1.034-0.585 0-1.104 0.122-1.558 0.367s-0.807 0.589-1.060 1.034c-0.253 0.445-0.38 0.956-0.38 1.532 0 0.567 0.127 1.073 0.38 1.519 0.251 0.441 0.606 0.796 1.034 1.040l0.014 0.007c0.454 0.244 0.969 0.367 1.545 0.367 0.611 0 1.161-0.131 1.649-0.393v-2.684zM46.111 20.521c-0.951 0-1.811-0.205-2.579-0.615-0.746-0.4-1.353-0.974-1.782-1.669l-0.011-0.020c-0.428-0.724-0.641-1.536-0.641-2.435s0.214-1.706 0.641-2.422c0.438-0.721 1.045-1.299 1.769-1.69l0.025-0.012c0.768-0.41 1.628-0.615 2.579-0.615s1.807 0.205 2.566 0.615c0.748 0.402 1.356 0.981 1.782 1.681l0.012 0.020c0.436 0.716 0.655 1.523 0.655 2.422s-0.218 1.711-0.655 2.435c-0.44 0.715-1.047 1.288-1.769 1.677l-0.025 0.012c-0.759 0.41-1.615 0.615-2.566 0.615zM46.111 18.714c0.541 0 1.030-0.122 1.466-0.367 0.432-0.252 0.78-0.607 1.014-1.033l0.007-0.014c0.253-0.445 0.38-0.951 0.38-1.519s-0.127-1.073-0.38-1.519c-0.239-0.438-0.587-0.79-1.008-1.027l-0.013-0.007c-0.41-0.239-0.902-0.38-1.427-0.38-0.014 0-0.028 0-0.042 0l0.002-0c-0.541 0-1.030 0.127-1.466 0.38-0.436 0.246-0.788 0.598-1.027 1.021l-0.007 0.013c-0.244 0.445-0.367 0.951-0.367 1.519s0.122 1.073 0.367 1.519c0.249 0.439 0.599 0.794 1.021 1.040l0.013 0.007c0.436 0.244 0.925 0.367 1.466 0.367z"></path>
</symbol>
<symbol id="icon-replay" viewBox="0 0 32 32">
<path fill="#5e6671" style="fill: var(--color3, #5e6671)" d="M6.667 16h-5.333l6.667 6.667 6.667-6.667h-5.333c0-4.413 3.587-8 8-8s8 3.587 8 8-3.587 8-8 8v2.667c5.893 0 10.667-4.773 10.667-10.667s-4.773-10.667-10.667-10.667-10.667 4.773-10.667 10.667z"></path>
</symbol>
<symbol id="icon-search" viewBox="0 0 32 32">
<path d="M20.667 18.667h-1.053l-0.373-0.36c1.301-1.502 2.093-3.475 2.093-5.634 0-0.002 0-0.004 0-0.006v0c0-4.786-3.88-8.667-8.667-8.667s-8.667 3.88-8.667 8.667c0 4.786 3.88 8.667 8.667 8.667v0c2.147 0 4.12-0.787 5.64-2.093l0.36 0.373v1.053l6.667 6.653 1.987-1.987-6.653-6.667zM12.667 18.667c-3.32 0-6-2.68-6-6s2.68-6 6-6 6 2.68 6 6-2.68 6-6 6z"></path>
</symbol>
<symbol id="icon-vector" viewBox="0 0 3 32">
<path fill="none" stroke="#465363" style="stroke: var(--color4, #465363)" stroke-linejoin="miter" stroke-linecap="butt" stroke-miterlimit="4" stroke-width="1.6" d="M1.6 0v32"></path>
</symbol>
</defs>
</svg>
